<?xml version="1.0" encoding="UTF-8" standalone="no"?>
<!-- Created with Inkscape (http://www.inkscape.org/) -->

<svg
   xmlns:dc="http://purl.org/dc/elements/1.1/"
   xmlns:cc="http://creativecommons.org/ns#"
   xmlns:rdf="http://www.w3.org/1999/02/22-rdf-syntax-ns#"
   xmlns:svg="http://www.w3.org/2000/svg"
   xmlns="http://www.w3.org/2000/svg"
   xmlns:sodipodi="http://sodipodi.sourceforge.net/DTD/sodipodi-0.dtd"
   xmlns:inkscape="http://www.inkscape.org/namespaces/inkscape"
   width="210mm"
   height="297mm"
   viewBox="0 0 210 297"
   version="1.1"
   id="svg8"
   inkscape:version="0.92.4 (5da689c313, 2019-01-14)"
   sodipodi:docname="canva.svg">
  <defs
     id="defs2">
    <inkscape:path-effect
       effect="bspline"
       id="path-effect880"
       is_visible="true"
       weight="33.333333"
       steps="2"
       helper_size="0"
       apply_no_weight="true"
       apply_with_weight="true"
       only_selected="false" />
    <inkscape:path-effect
       effect="bspline"
       id="path-effect874"
       is_visible="true"
       weight="33.333333"
       steps="2"
       helper_size="0"
       apply_no_weight="true"
       apply_with_weight="true"
       only_selected="false" />
    <inkscape:path-effect
       only_selected="false"
       apply_with_weight="true"
       apply_no_weight="true"
       helper_size="0"
       steps="2"
       weight="33.333333"
       is_visible="true"
       id="path-effect870"
       effect="bspline" />
    <inkscape:path-effect
       effect="bspline"
       id="path-effect866"
       is_visible="true"
       weight="33.333333"
       steps="2"
       helper_size="0"
       apply_no_weight="true"
       apply_with_weight="true"
       only_selected="false" />
    <inkscape:path-effect
       effect="bspline"
       id="path-effect1006"
       is_visible="true"
       weight="33.333333"
       steps="2"
       helper_size="0"
       apply_no_weight="true"
       apply_with_weight="true"
       only_selected="false" />
    <inkscape:path-effect
       effect="bspline"
       id="path-effect1002"
       is_visible="true"
       weight="33.333333"
       steps="2"
       helper_size="0"
       apply_no_weight="true"
       apply_with_weight="true"
       only_selected="false" />
  </defs>
  <sodipodi:namedview
     id="base"
     pagecolor="#ffffff"
     bordercolor="#666666"
     borderopacity="1.0"
     inkscape:pageopacity="0.0"
     inkscape:pageshadow="2"
     inkscape:zoom="0.49497474"
     inkscape:cx="471.21809"
     inkscape:cy="481.21022"
     inkscape:document-units="mm"
     inkscape:current-layer="g842"
     showgrid="false"
     showguides="true"
     inkscape:snap-object-midpoints="false"
     inkscape:snap-bbox="false"
     inkscape:snap-bbox-midpoints="false"
     inkscape:snap-others="true"
     inkscape:object-nodes="true"
     inkscape:window-width="960"
     inkscape:window-height="1043"
     inkscape:window-x="960"
     inkscape:window-y="0"
     inkscape:window-maximized="0" />
  <metadata
     id="metadata5">
    <rdf:RDF>
      <cc:Work
         rdf:about="">
        <dc:format>image/svg+xml</dc:format>
        <dc:type
           rdf:resource="http://purl.org/dc/dcmitype/StillImage" />
        <dc:title />
      </cc:Work>
    </rdf:RDF>
  </metadata>
  <g
     inkscape:label="Layer 1"
     inkscape:groupmode="layer"
     id="layer1">
    <g
       aria-label="P N D B"
       style="font-style:normal;font-weight:normal;font-size:2.82222223px;line-height:1.25;font-family:sans-serif;letter-spacing:0px;word-spacing:0px;fill:#000000;fill-opacity:1;stroke:none;stroke-width:0.26458332"
       id="text981"
       transform="matrix(16.765169,0,0,16.765169,-1813.3379,-1050.3966)" />
    <g
       id="g842"
       transform="matrix(16.765169,0,0,16.765169,-1813.3379,-1050.3966)">
      <g
         id="g890"
         transform="translate(0,-0.63126912)">
        <ellipse
           inkscape:export-ydpi="96"
           inkscape:export-xdpi="96"
           ry="3.1404169"
           rx="5.7964077"
           cy="66.50975"
           cx="114.60911"
           id="ellipse921-5"
           style="fill:#a88e39;fill-opacity:1;fill-rule:evenodd;stroke:none;stroke-width:3.37002468;stroke-linecap:butt;stroke-linejoin:miter;stroke-miterlimit:4;stroke-dasharray:none;stroke-dashoffset:0;stroke-opacity:1;paint-order:stroke fill markers" />
        <ellipse
           inkscape:export-ydpi="96"
           inkscape:export-xdpi="96"
           style="fill:#4cbc34;fill-opacity:1;fill-rule:evenodd;stroke:#ffffff;stroke-width:0.26764449;stroke-linecap:butt;stroke-linejoin:miter;stroke-miterlimit:4;stroke-dasharray:none;stroke-dashoffset:0;stroke-opacity:1;paint-order:stroke fill markers"
           id="ellipse919-6"
           cx="114.74271"
           cy="66.125549"
           rx="5.6946511"
           ry="2.7546864" />
        <ellipse
           inkscape:export-ydpi="96"
           inkscape:export-xdpi="96"
           ry="2.3553128"
           rx="5.4456167"
           cy="66.49305"
           cx="114.29173"
           id="ellipse917-2"
           style="fill:#4b9bcd;fill-opacity:1;fill-rule:evenodd;stroke:#f7fbfd;stroke-width:0.26458332;stroke-linecap:butt;stroke-linejoin:miter;stroke-miterlimit:4;stroke-dasharray:none;stroke-dashoffset:0;stroke-opacity:1;paint-order:stroke fill markers" />
        <ellipse
           inkscape:export-ydpi="96"
           inkscape:export-xdpi="96"
           style="fill:#ffffff;fill-opacity:1;fill-rule:evenodd;stroke:none;stroke-width:2.59819007;stroke-linecap:butt;stroke-linejoin:miter;stroke-miterlimit:4;stroke-dasharray:none;stroke-dashoffset:0;stroke-opacity:1;paint-order:stroke fill markers"
           id="path915-9"
           cx="114.89307"
           cy="66.349632"
           rx="4.9444861"
           ry="2.1882694" />
        <text
           inkscape:export-ydpi="96"
           inkscape:export-xdpi="96"
           id="text857-1"
           y="67.183685"
           x="110.48598"
           style="font-style:italic;font-variant:normal;font-weight:bold;font-stretch:normal;font-size:2.82222223px;line-height:1.25;font-family:sans-serif;-inkscape-font-specification:'sans-serif Bold Italic';letter-spacing:0px;word-spacing:0px;fill:#808080;fill-opacity:1;stroke:none;stroke-width:0.26458332"
           xml:space="preserve"><tspan
             style="font-style:italic;font-variant:normal;font-weight:bold;font-stretch:normal;font-family:sans-serif;-inkscape-font-specification:'sans-serif Bold Italic';fill:#808080;fill-opacity:1;stroke-width:0.26458332"
             y="67.183685"
             x="110.48598"
             id="tspan855-2"
             sodipodi:role="line">PNDB</tspan></text>
        <text
           inkscape:export-ydpi="96"
           inkscape:export-xdpi="96"
           id="text1041"
           y="67.502174"
           x="110.76052"
           style="font-style:italic;font-variant:normal;font-weight:bold;font-stretch:normal;font-size:2.82222223px;line-height:1.25;font-family:sans-serif;-inkscape-font-specification:'sans-serif Bold Italic';letter-spacing:0px;word-spacing:0px;fill:#4d4d4d;fill-opacity:1;stroke:none;stroke-width:0.26458332"
           xml:space="preserve"><tspan
             style="font-style:italic;font-variant:normal;font-weight:bold;font-stretch:normal;font-size:0.35277778px;font-family:sans-serif;-inkscape-font-specification:'sans-serif Bold Italic';fill:#4d4d4d;stroke-width:0.26458332"
             y="67.502174"
             x="110.76052"
             id="tspan1039"
             sodipodi:role="line">Pôle National de Données de Biodiversité</tspan></text>
      </g>
      <g
         id="g900"
         transform="matrix(1,0,0,0.63544681,0,25.523817)">
        <path
           transform="matrix(1,0,0,-1.2144909,0,159.64364)"
           sodipodi:nodetypes="cccccccccccccccccc"
           inkscape:original-d="m 109.42045,70.787693 c 0,0 0.90389,0.29431 1.35577,0.441432 0.45191,0.189832 0.90385,0.37967 1.35577,0.569494 0.45195,0.281429 0.90388,0.562841 1.35576,0.844224 0.45192,0.14898 0.90385,0.297957 1.35577,0.446922 0.45195,0.136614 0.90387,0.273212 1.35577,0.409794 0.45193,0.04935 0.90387,0.09869 1.35577,0.14802 0.45193,-0.08925 0.90386,-0.178523 1.35577,-0.267805 0.22047,-0.121398 0.66136,-0.364229 0.66136,-0.364229 0,0 -0.44089,0.306605 -0.66136,0.459889 -0.45191,0.121168 -0.90386,0.24233 -1.35577,0.363465 -0.45188,-0.01744 -0.90383,-0.03489 -1.35577,-0.05236 -0.45191,-0.104698 -0.90385,-0.209411 -1.35577,-0.31413 -0.45189,-0.117073 -0.90382,-0.234164 -1.35577,-0.351271 -0.45192,-0.249517 -0.90381,-0.499023 -1.35576,-0.748564 -0.45192,-0.157936 -0.90384,-0.31588 -1.35577,-0.473834 -0.4519,-0.115242 -1.35577,-0.345772 -1.35577,-0.345772 z"
           inkscape:path-effect="#path-effect880"
           inkscape:connector-curvature="0"
           id="path878"
           d="m 109.42045,70.787693 c 0.45192,0.147144 0.90389,0.294303 1.35579,0.462781 0.45189,0.168478 0.90383,0.358316 1.35577,0.593944 0.45193,0.235628 0.90386,0.517042 1.35576,0.73222 0.4519,0.215179 0.90383,0.364155 1.35577,0.506944 0.45193,0.14279 0.90385,0.279387 1.35577,0.372352 0.45191,0.09297 0.90385,0.142308 1.35576,0.122342 0.45192,-0.01997 0.90385,-0.109236 1.24003,-0.214576 0.33619,-0.10534 0.55664,-0.226745 0.77709,-0.348155 -0.22045,0.153296 -0.4409,0.306589 -0.77709,0.443815 -0.33618,0.137227 -0.78813,0.258389 -1.24003,0.310238 -0.45189,0.05185 -0.90384,0.0344 -1.35576,-0.02669 -0.45193,-0.06108 -0.90387,-0.165794 -1.35577,-0.27669 -0.45191,-0.110895 -0.90384,-0.227987 -1.35577,-0.411296 -0.45194,-0.183309 -0.90383,-0.432814 -1.35576,-0.636555 -0.45194,-0.203741 -0.90386,-0.361684 -1.35577,-0.498284 -0.45192,-0.136599 -0.90387,-0.251863 -1.35579,-0.36712 0,0 0,-0.765275 0,-0.765275 z"
           style="fill:#a88e39;fill-opacity:1;stroke:#fffff7;stroke-width:0.07160237;stroke-linecap:butt;stroke-linejoin:miter;stroke-miterlimit:4;stroke-dasharray:none;stroke-opacity:1" />
        <path
           style="fill:#4cbc34;fill-opacity:1;stroke:#fffff7;stroke-width:0.07160237;stroke-linecap:butt;stroke-linejoin:miter;stroke-miterlimit:4;stroke-dasharray:none;stroke-opacity:1"
           d="m 109.42045,70.787693 c 0.45192,0.121155 0.90388,0.242318 1.35578,0.337165 0.45191,0.09485 0.90384,0.163398 1.35577,0.221427 0.45194,0.05803 0.90386,0.105536 1.35576,0.121477 0.45191,0.01594 0.90384,3.16e-4 1.35578,-0.02583 0.45193,-0.02614 0.90386,-0.06281 1.35577,-0.12577 0.4519,-0.06296 0.90386,-0.15224 1.35577,-0.241504 0.4519,-0.08926 0.90383,-0.178535 1.35576,-0.162588 0.45193,0.01595 0.90383,0.137096 1.35575,0.258251 -0.45192,-0.08927 -0.90381,-0.178531 -1.35575,-0.162592 -0.45193,0.01594 -0.90386,0.137097 -1.35576,0.258247 -0.45191,0.12115 -0.90384,0.242307 -1.35577,0.337163 -0.45194,0.09486 -0.90387,0.163405 -1.35577,0.221431 -0.45191,0.05803 -0.90383,0.105532 -1.35577,0.121478 -0.45194,0.01595 -0.90383,3.26e-4 -1.35577,-0.02582 -0.45193,-0.02614 -0.90386,-0.0628 -1.35577,-0.125766 -0.4519,-0.06296 -0.90386,-0.152237 -1.35578,-0.241505 0,0 0,-0.76527 0,-0.76527 z"
           id="path868"
           inkscape:connector-curvature="0"
           inkscape:path-effect="#path-effect870"
           inkscape:original-d="m 109.42045,70.787693 c 0,0 0.90388,0.242299 1.35577,0.363465 0.45192,0.06853 0.90385,0.13708 1.35577,0.205647 0.45195,0.04749 0.90387,0.095 1.35576,0.14252 0.45192,-0.01564 0.90385,-0.03126 1.35577,-0.04687 0.45195,-0.03668 0.90388,-0.07334 1.35577,-0.109987 0.45192,-0.08928 0.90388,-0.178555 1.35577,-0.267805 0.45192,-0.08928 0.90385,-0.178549 1.35577,-0.267805 0.45195,0.121143 1.35576,0.363465 1.35576,0.363465 0,0 -0.90381,-0.17855 -1.35576,-0.267805 -0.45192,0.121143 -0.90385,0.242299 -1.35577,0.363465 -0.45189,0.121134 -0.90382,0.242291 -1.35577,0.363465 -0.45192,0.06853 -0.90385,0.137085 -1.35577,0.205647 -0.45189,0.04749 -0.90381,0.095 -1.35577,0.14252 -0.45192,-0.01564 -0.90381,-0.03126 -1.35576,-0.04686 -0.45192,-0.03668 -0.90385,-0.07334 -1.35577,-0.109987 -0.45189,-0.08928 -1.35577,-0.267805 -1.35577,-0.267805 z"
           sodipodi:nodetypes="cccccccccccccccccc"
           transform="matrix(1,0,0,1.2144909,0,-15.183315)" />
        <path
           transform="matrix(1,0,0,-1.2144909,0,158.6652)"
           sodipodi:nodetypes="cccccccccccccccccccccc"
           inkscape:original-d="m 116.42474,71.59679 c 0,0 0.75356,-0.122833 1.13032,-0.184269 0.66235,-0.175882 1.4572,-0.38697 1.98704,-0.527695 0.40272,0.02247 1.00682,0.05617 1.51019,0.08423 0.36938,0.145067 1.10811,0.435168 1.10811,0.435168 0,0 -0.73871,-0.266179 -1.10811,-0.399298 -0.5034,-0.0081 -1.10747,-0.01791 -1.51019,-0.02444 -0.64106,0.20831 -2.40413,0.781146 -2.40413,0.781146 z m 0.19164,0.296262 c 0,0 -1.18192,0.186617 -1.77286,0.279901 -0.45189,0.04752 -0.90381,0.09502 -1.35577,0.14252 -0.45192,-0.01561 -0.90381,-0.03123 -1.35576,-0.04686 -0.45192,-0.114621 -0.90384,-0.229249 -1.35577,-0.343889 -0.4519,-0.123905 -1.35577,-0.371761 -1.35577,-0.371761 v -0.765269 c 0,0 0.90389,0.311636 1.35577,0.467421 0.45191,0.146521 0.90385,0.293042 1.35577,0.439549 0.45195,0.04752 0.90387,0.09503 1.35576,0.14252 0.42938,-1.41e-4 0.85879,-2.94e-4 1.28813,-4.61e-4 0.31616,-0.01522 0.94845,-0.0457 0.94845,-0.0457 z"
           inkscape:path-effect="#path-effect874"
           inkscape:connector-curvature="0"
           id="path872"
           d="m 116.42474,71.59679 c 0.37677,-0.06142 0.75356,-0.122848 1.27311,-0.241507 0.51956,-0.11866 1.31441,-0.329747 1.78069,-0.388871 0.46628,-0.05912 1.07038,-0.02543 1.50676,0.06114 0.43637,0.08657 0.80573,0.231619 1.1751,0.376675 -0.36937,-0.133099 -0.73871,-0.266187 -1.17511,-0.336816 -0.4364,-0.07063 -1.04047,-0.0804 -1.56236,0.02048 -0.5219,0.100888 -1.48358,0.413358 -2.28496,0.67374 0,0 -0.71323,-0.164842 -0.71323,-0.164842 z m 0.19164,0.296262 c -0.59095,0.0933 -1.18192,0.186603 -1.70334,0.257004 -0.52141,0.0704 -0.97333,0.117907 -1.42527,0.133852 -0.45194,0.01595 -0.90383,3.26e-4 -1.35576,-0.0648 -0.45194,-0.06512 -0.90386,-0.179753 -1.35577,-0.299026 -0.45192,-0.119272 -0.90387,-0.2432 -1.35579,-0.36712 0,0 0,-0.765269 0,-0.765269 0.45192,0.155807 0.90389,0.31163 1.35579,0.462782 0.45189,0.151152 0.90383,0.297674 1.35577,0.394686 0.45193,0.09701 0.90385,0.144519 1.34449,0.168193 0.44063,0.02367 0.87004,0.02352 1.24279,0.01583 0.37275,-0.0077 0.68889,-0.02293 1.00504,-0.03816 0,0 0.89205,0.102029 0.89205,0.102029 z"
           style="fill:#4b9bcd;fill-opacity:1;stroke:#fffff7;stroke-width:0.07160237;stroke-linecap:butt;stroke-linejoin:miter;stroke-miterlimit:4;stroke-dasharray:none;stroke-opacity:1" />
      </g>
    </g>
  </g>
</svg>
